<mxfile host="Electron" modified="2023-10-28T19:53:28.037Z" agent="Mozilla/5.0 (Macintosh; Intel Mac OS X 10_15_7) AppleWebKit/537.36 (KHTML, like Gecko) draw.io/22.0.3 Chrome/114.0.5735.289 Electron/25.8.4 Safari/537.36" etag="argqIab5yC5AUrbnMWOl" version="22.0.3" type="device">
  <diagram name="Drill down Client and the Exp API when it&#39;s waiting to do the ride" id="yIVAFQCSum2osdcq73iJ">
    <mxGraphModel dx="1670" dy="1771" grid="1" gridSize="10" guides="1" tooltips="1" connect="1" arrows="1" fold="1" page="1" pageScale="1" pageWidth="1100" pageHeight="850" math="0" shadow="0">
      <root>
        <mxCell id="JH1rLwDBVYweKkS2PqFb-0" />
        <mxCell id="JH1rLwDBVYweKkS2PqFb-1" parent="JH1rLwDBVYweKkS2PqFb-0" />
        <mxCell id="JH1rLwDBVYweKkS2PqFb-2" value="exp-ride-x-press" style="swimlane;horizontal=0;whiteSpace=wrap;html=1;" parent="JH1rLwDBVYweKkS2PqFb-1" vertex="1">
          <mxGeometry y="45" width="2000" height="200" as="geometry" />
        </mxCell>
        <mxCell id="JH1rLwDBVYweKkS2PqFb-5" value="Client - Mobile App" style="swimlane;horizontal=0;whiteSpace=wrap;html=1;" parent="JH1rLwDBVYweKkS2PqFb-1" vertex="1">
          <mxGeometry y="245" width="2000" height="200" as="geometry" />
        </mxCell>
        <mxCell id="JH1rLwDBVYweKkS2PqFb-11" value="Get Client Geo location" style="points=[[0.25,0,0],[0.5,0,0],[0.75,0,0],[1,0.25,0],[1,0.5,0],[1,0.75,0],[0.75,1,0],[0.5,1,0],[0.25,1,0],[0,0.75,0],[0,0.5,0],[0,0.25,0]];shape=mxgraph.bpmn.task;whiteSpace=wrap;rectStyle=rounded;size=10;html=1;container=1;expand=0;collapsible=0;taskMarker=abstract;" parent="JH1rLwDBVYweKkS2PqFb-5" vertex="1">
          <mxGeometry x="170" y="60" width="120" height="80" as="geometry" />
        </mxCell>
        <mxCell id="3RJ_jzoHxxyydn7t_Ovb-1" value="Display Ride information" style="points=[[0.25,0,0],[0.5,0,0],[0.75,0,0],[1,0.25,0],[1,0.5,0],[1,0.75,0],[0.75,1,0],[0.5,1,0],[0.25,1,0],[0,0.75,0],[0,0.5,0],[0,0.25,0]];shape=mxgraph.bpmn.task;whiteSpace=wrap;rectStyle=rounded;size=10;html=1;container=1;expand=0;collapsible=0;taskMarker=abstract;" parent="JH1rLwDBVYweKkS2PqFb-5" vertex="1">
          <mxGeometry x="520" y="60" width="120" height="80" as="geometry" />
        </mxCell>
        <mxCell id="sCGjl2i0q2fNRNabJfUA-9" style="edgeStyle=orthogonalEdgeStyle;rounded=0;orthogonalLoop=1;jettySize=auto;html=1;entryX=0.5;entryY=1;entryDx=0;entryDy=0;entryPerimeter=0;" parent="JH1rLwDBVYweKkS2PqFb-5" target="3RJ_jzoHxxyydn7t_Ovb-5" edge="1">
          <mxGeometry relative="1" as="geometry">
            <mxPoint x="1265" y="140" as="sourcePoint" />
            <mxPoint x="860" y="160" as="targetPoint" />
            <Array as="points">
              <mxPoint x="1265" y="160" />
              <mxPoint x="860" y="160" />
            </Array>
          </mxGeometry>
        </mxCell>
        <mxCell id="sCGjl2i0q2fNRNabJfUA-10" value="No" style="edgeLabel;html=1;align=center;verticalAlign=middle;resizable=0;points=[];" parent="sCGjl2i0q2fNRNabJfUA-9" vertex="1" connectable="0">
          <mxGeometry x="0.0244" y="5" relative="1" as="geometry">
            <mxPoint as="offset" />
          </mxGeometry>
        </mxCell>
        <mxCell id="JH1rLwDBVYweKkS2PqFb-24" value="prc-ride" style="swimlane;horizontal=0;whiteSpace=wrap;html=1;" parent="JH1rLwDBVYweKkS2PqFb-1" vertex="1">
          <mxGeometry y="-155" width="2000" height="200" as="geometry" />
        </mxCell>
        <mxCell id="JH1rLwDBVYweKkS2PqFb-44" value="sys-notifications" style="swimlane;horizontal=0;whiteSpace=wrap;html=1;" parent="JH1rLwDBVYweKkS2PqFb-1" vertex="1">
          <mxGeometry y="-355" width="2000" height="200" as="geometry" />
        </mxCell>
        <mxCell id="IdD98tMXuZtj2Klf-PkY-0" value="Send notification to client" style="points=[[0.25,0,0],[0.5,0,0],[0.75,0,0],[1,0.25,0],[1,0.5,0],[1,0.75,0],[0.75,1,0],[0.5,1,0],[0.25,1,0],[0,0.75,0],[0,0.5,0],[0,0.25,0]];shape=mxgraph.bpmn.task;whiteSpace=wrap;rectStyle=rounded;size=10;html=1;container=1;expand=0;collapsible=0;taskMarker=abstract;" parent="JH1rLwDBVYweKkS2PqFb-44" vertex="1">
          <mxGeometry x="170" y="60" width="120" height="80" as="geometry" />
        </mxCell>
        <mxCell id="IdD98tMXuZtj2Klf-PkY-1" value="" style="points=[[0.145,0.145,0],[0.5,0,0],[0.855,0.145,0],[1,0.5,0],[0.855,0.855,0],[0.5,1,0],[0.145,0.855,0],[0,0.5,0]];shape=mxgraph.bpmn.event;html=1;verticalLabelPosition=bottom;labelBackgroundColor=#ffffff;verticalAlign=top;align=center;perimeter=ellipsePerimeter;outlineConnect=0;aspect=fixed;outline=standard;symbol=general;" parent="JH1rLwDBVYweKkS2PqFb-44" vertex="1">
          <mxGeometry x="70" y="75" width="50" height="50" as="geometry" />
        </mxCell>
        <mxCell id="IdD98tMXuZtj2Klf-PkY-2" style="edgeStyle=orthogonalEdgeStyle;rounded=0;orthogonalLoop=1;jettySize=auto;html=1;entryX=0;entryY=0.5;entryDx=0;entryDy=0;entryPerimeter=0;" parent="JH1rLwDBVYweKkS2PqFb-44" source="IdD98tMXuZtj2Klf-PkY-1" target="IdD98tMXuZtj2Klf-PkY-0" edge="1">
          <mxGeometry relative="1" as="geometry" />
        </mxCell>
        <mxCell id="JH1rLwDBVYweKkS2PqFb-49" style="edgeStyle=orthogonalEdgeStyle;rounded=0;orthogonalLoop=1;jettySize=auto;html=1;" parent="JH1rLwDBVYweKkS2PqFb-1" edge="1">
          <mxGeometry relative="1" as="geometry">
            <mxPoint x="1950" y="-50" as="sourcePoint" />
            <Array as="points">
              <mxPoint x="1950" y="-410" />
            </Array>
          </mxGeometry>
        </mxCell>
        <mxCell id="JH1rLwDBVYweKkS2PqFb-54" value="sys-ride-express-db" style="swimlane;horizontal=0;whiteSpace=wrap;html=1;" parent="JH1rLwDBVYweKkS2PqFb-1" vertex="1">
          <mxGeometry y="-755" width="2000" height="200" as="geometry" />
        </mxCell>
        <mxCell id="4UbX55ZBm526S6G_ua0Q-4" value="Get Ride" style="points=[[0.25,0,0],[0.5,0,0],[0.75,0,0],[1,0.25,0],[1,0.5,0],[1,0.75,0],[0.75,1,0],[0.5,1,0],[0.25,1,0],[0,0.75,0],[0,0.5,0],[0,0.25,0]];shape=mxgraph.bpmn.task;whiteSpace=wrap;rectStyle=rounded;size=10;html=1;container=1;expand=0;collapsible=0;taskMarker=abstract;" parent="JH1rLwDBVYweKkS2PqFb-54" vertex="1">
          <mxGeometry x="390" y="50" width="120" height="80" as="geometry" />
        </mxCell>
        <mxCell id="0JVOviMgSdWLr8YbXQJn-2" value="Update Ride" style="points=[[0.25,0,0],[0.5,0,0],[0.75,0,0],[1,0.25,0],[1,0.5,0],[1,0.75,0],[0.75,1,0],[0.5,1,0],[0.25,1,0],[0,0.75,0],[0,0.5,0],[0,0.25,0]];shape=mxgraph.bpmn.task;whiteSpace=wrap;rectStyle=rounded;size=10;html=1;container=1;expand=0;collapsible=0;taskMarker=abstract;" parent="JH1rLwDBVYweKkS2PqFb-54" vertex="1">
          <mxGeometry x="1720" y="60" width="120" height="80" as="geometry" />
        </mxCell>
        <mxCell id="0JVOviMgSdWLr8YbXQJn-3" value="" style="ellipse;whiteSpace=wrap;html=1;aspect=fixed;fillColor=#000000;" parent="JH1rLwDBVYweKkS2PqFb-54" vertex="1">
          <mxGeometry x="1890" y="75" width="50" height="50" as="geometry" />
        </mxCell>
        <mxCell id="0JVOviMgSdWLr8YbXQJn-4" style="edgeStyle=orthogonalEdgeStyle;rounded=0;orthogonalLoop=1;jettySize=auto;html=1;" parent="JH1rLwDBVYweKkS2PqFb-54" source="0JVOviMgSdWLr8YbXQJn-2" target="0JVOviMgSdWLr8YbXQJn-3" edge="1">
          <mxGeometry relative="1" as="geometry" />
        </mxCell>
        <mxCell id="4UbX55ZBm526S6G_ua0Q-0" value="Get ride information" style="points=[[0.25,0,0],[0.5,0,0],[0.75,0,0],[1,0.25,0],[1,0.5,0],[1,0.75,0],[0.75,1,0],[0.5,1,0],[0.25,1,0],[0,0.75,0],[0,0.5,0],[0,0.25,0]];shape=mxgraph.bpmn.task;whiteSpace=wrap;rectStyle=rounded;size=10;html=1;container=1;expand=0;collapsible=0;taskMarker=abstract;" parent="JH1rLwDBVYweKkS2PqFb-1" vertex="1">
          <mxGeometry x="290" y="95" width="120" height="80" as="geometry" />
        </mxCell>
        <mxCell id="4UbX55ZBm526S6G_ua0Q-1" value="Gets ride Information" style="points=[[0.25,0,0],[0.5,0,0],[0.75,0,0],[1,0.25,0],[1,0.5,0],[1,0.75,0],[0.75,1,0],[0.5,1,0],[0.25,1,0],[0,0.75,0],[0,0.5,0],[0,0.25,0]];shape=mxgraph.bpmn.task;whiteSpace=wrap;rectStyle=rounded;size=10;html=1;container=1;expand=0;collapsible=0;taskMarker=abstract;" parent="JH1rLwDBVYweKkS2PqFb-1" vertex="1">
          <mxGeometry x="170" y="305" width="120" height="80" as="geometry" />
        </mxCell>
        <mxCell id="4UbX55ZBm526S6G_ua0Q-2" value="Get Ride information" style="points=[[0.25,0,0],[0.5,0,0],[0.75,0,0],[1,0.25,0],[1,0.5,0],[1,0.75,0],[0.75,1,0],[0.5,1,0],[0.25,1,0],[0,0.75,0],[0,0.5,0],[0,0.25,0]];shape=mxgraph.bpmn.task;whiteSpace=wrap;rectStyle=rounded;size=10;html=1;container=1;expand=0;collapsible=0;taskMarker=abstract;" parent="JH1rLwDBVYweKkS2PqFb-1" vertex="1">
          <mxGeometry x="290" y="-105" width="120" height="80" as="geometry" />
        </mxCell>
        <mxCell id="4UbX55ZBm526S6G_ua0Q-5" style="edgeStyle=orthogonalEdgeStyle;rounded=0;orthogonalLoop=1;jettySize=auto;html=1;exitX=1;exitY=0.5;exitDx=0;exitDy=0;exitPerimeter=0;" parent="JH1rLwDBVYweKkS2PqFb-1" source="4UbX55ZBm526S6G_ua0Q-2" target="4UbX55ZBm526S6G_ua0Q-4" edge="1">
          <mxGeometry relative="1" as="geometry">
            <mxPoint x="890" y="-105" as="sourcePoint" />
          </mxGeometry>
        </mxCell>
        <mxCell id="4UbX55ZBm526S6G_ua0Q-6" value="GET /ride/{id}" style="edgeLabel;html=1;align=center;verticalAlign=middle;resizable=0;points=[];" parent="4UbX55ZBm526S6G_ua0Q-5" vertex="1" connectable="0">
          <mxGeometry x="-0.2577" y="3" relative="1" as="geometry">
            <mxPoint as="offset" />
          </mxGeometry>
        </mxCell>
        <mxCell id="4UbX55ZBm526S6G_ua0Q-7" style="edgeStyle=orthogonalEdgeStyle;rounded=0;orthogonalLoop=1;jettySize=auto;html=1;entryX=0.5;entryY=0;entryDx=0;entryDy=0;entryPerimeter=0;" parent="JH1rLwDBVYweKkS2PqFb-1" source="4UbX55ZBm526S6G_ua0Q-4" edge="1">
          <mxGeometry relative="1" as="geometry">
            <mxPoint x="580" y="305" as="targetPoint" />
          </mxGeometry>
        </mxCell>
        <mxCell id="4UbX55ZBm526S6G_ua0Q-10" style="edgeStyle=orthogonalEdgeStyle;rounded=0;orthogonalLoop=1;jettySize=auto;html=1;" parent="JH1rLwDBVYweKkS2PqFb-1" source="4UbX55ZBm526S6G_ua0Q-1" edge="1">
          <mxGeometry relative="1" as="geometry">
            <mxPoint x="350" y="175" as="targetPoint" />
            <Array as="points">
              <mxPoint x="350" y="345" />
            </Array>
          </mxGeometry>
        </mxCell>
        <mxCell id="4UbX55ZBm526S6G_ua0Q-11" value="GET /ride/{id}" style="edgeLabel;html=1;align=center;verticalAlign=middle;resizable=0;points=[];" parent="4UbX55ZBm526S6G_ua0Q-10" vertex="1" connectable="0">
          <mxGeometry x="0.113" y="1" relative="1" as="geometry">
            <mxPoint as="offset" />
          </mxGeometry>
        </mxCell>
        <mxCell id="4UbX55ZBm526S6G_ua0Q-12" value="" style="edgeStyle=orthogonalEdgeStyle;rounded=0;orthogonalLoop=1;jettySize=auto;html=1;" parent="JH1rLwDBVYweKkS2PqFb-1" source="4UbX55ZBm526S6G_ua0Q-0" target="4UbX55ZBm526S6G_ua0Q-2" edge="1">
          <mxGeometry relative="1" as="geometry" />
        </mxCell>
        <mxCell id="4UbX55ZBm526S6G_ua0Q-13" value="GET /ride/{id}" style="edgeLabel;html=1;align=center;verticalAlign=middle;resizable=0;points=[];" parent="4UbX55ZBm526S6G_ua0Q-12" vertex="1" connectable="0">
          <mxGeometry x="0.0125" y="2" relative="1" as="geometry">
            <mxPoint as="offset" />
          </mxGeometry>
        </mxCell>
        <mxCell id="4UbX55ZBm526S6G_ua0Q-14" style="edgeStyle=orthogonalEdgeStyle;rounded=0;orthogonalLoop=1;jettySize=auto;html=1;" parent="JH1rLwDBVYweKkS2PqFb-1" source="IdD98tMXuZtj2Klf-PkY-0" target="4UbX55ZBm526S6G_ua0Q-1" edge="1">
          <mxGeometry relative="1" as="geometry" />
        </mxCell>
        <mxCell id="3RJ_jzoHxxyydn7t_Ovb-0" value="Get driver location" style="points=[[0.25,0,0],[0.5,0,0],[0.75,0,0],[1,0.25,0],[1,0.5,0],[1,0.75,0],[0.75,1,0],[0.5,1,0],[0.25,1,0],[0,0.75,0],[0,0.5,0],[0,0.25,0]];shape=mxgraph.bpmn.task;whiteSpace=wrap;rectStyle=rounded;size=10;html=1;container=1;expand=0;collapsible=0;taskMarker=abstract;" parent="JH1rLwDBVYweKkS2PqFb-1" vertex="1">
          <mxGeometry x="800" y="105" width="120" height="80" as="geometry" />
        </mxCell>
        <mxCell id="3RJ_jzoHxxyydn7t_Ovb-3" value="" style="edgeStyle=orthogonalEdgeStyle;rounded=0;orthogonalLoop=1;jettySize=auto;html=1;" parent="JH1rLwDBVYweKkS2PqFb-1" source="3RJ_jzoHxxyydn7t_Ovb-1" target="3RJ_jzoHxxyydn7t_Ovb-5" edge="1">
          <mxGeometry relative="1" as="geometry">
            <mxPoint x="700" y="345" as="sourcePoint" />
            <mxPoint x="1170" y="-35" as="targetPoint" />
          </mxGeometry>
        </mxCell>
        <mxCell id="3RJ_jzoHxxyydn7t_Ovb-4" value="" style="edgeStyle=orthogonalEdgeStyle;rounded=0;orthogonalLoop=1;jettySize=auto;html=1;" parent="JH1rLwDBVYweKkS2PqFb-1" source="3RJ_jzoHxxyydn7t_Ovb-5" edge="1">
          <mxGeometry relative="1" as="geometry">
            <mxPoint x="1060" y="345" as="targetPoint" />
          </mxGeometry>
        </mxCell>
        <mxCell id="3RJ_jzoHxxyydn7t_Ovb-5" value="Get driver location" style="points=[[0.25,0,0],[0.5,0,0],[0.75,0,0],[1,0.25,0],[1,0.5,0],[1,0.75,0],[0.75,1,0],[0.5,1,0],[0.25,1,0],[0,0.75,0],[0,0.5,0],[0,0.25,0]];shape=mxgraph.bpmn.task;whiteSpace=wrap;rectStyle=rounded;size=10;html=1;container=1;expand=0;collapsible=0;taskMarker=abstract;" parent="JH1rLwDBVYweKkS2PqFb-1" vertex="1">
          <mxGeometry x="800" y="305" width="120" height="80" as="geometry" />
        </mxCell>
        <mxCell id="3RJ_jzoHxxyydn7t_Ovb-6" style="edgeStyle=orthogonalEdgeStyle;rounded=0;orthogonalLoop=1;jettySize=auto;html=1;entryX=0.5;entryY=1;entryDx=0;entryDy=0;entryPerimeter=0;" parent="JH1rLwDBVYweKkS2PqFb-1" source="3RJ_jzoHxxyydn7t_Ovb-5" target="3RJ_jzoHxxyydn7t_Ovb-0" edge="1">
          <mxGeometry relative="1" as="geometry" />
        </mxCell>
        <mxCell id="3RJ_jzoHxxyydn7t_Ovb-7" value="GET /driver/{id}/location/" style="edgeLabel;html=1;align=center;verticalAlign=middle;resizable=0;points=[];" parent="3RJ_jzoHxxyydn7t_Ovb-6" vertex="1" connectable="0">
          <mxGeometry x="-0.2667" y="2" relative="1" as="geometry">
            <mxPoint as="offset" />
          </mxGeometry>
        </mxCell>
        <mxCell id="3RJ_jzoHxxyydn7t_Ovb-8" style="edgeStyle=orthogonalEdgeStyle;rounded=0;orthogonalLoop=1;jettySize=auto;html=1;" parent="JH1rLwDBVYweKkS2PqFb-1" source="3RJ_jzoHxxyydn7t_Ovb-0" target="3RJ_jzoHxxyydn7t_Ovb-2" edge="1">
          <mxGeometry relative="1" as="geometry" />
        </mxCell>
        <mxCell id="3RJ_jzoHxxyydn7t_Ovb-9" value="GET /driver/{id}/location" style="edgeLabel;html=1;align=center;verticalAlign=middle;resizable=0;points=[];" parent="3RJ_jzoHxxyydn7t_Ovb-8" vertex="1" connectable="0">
          <mxGeometry x="0.0727" y="2" relative="1" as="geometry">
            <mxPoint as="offset" />
          </mxGeometry>
        </mxCell>
        <mxCell id="3RJ_jzoHxxyydn7t_Ovb-10" style="edgeStyle=orthogonalEdgeStyle;rounded=0;orthogonalLoop=1;jettySize=auto;html=1;" parent="JH1rLwDBVYweKkS2PqFb-1" source="3RJ_jzoHxxyydn7t_Ovb-2" edge="1">
          <mxGeometry relative="1" as="geometry">
            <mxPoint x="920" y="325" as="targetPoint" />
            <Array as="points">
              <mxPoint x="990" y="-455" />
              <mxPoint x="990" y="325" />
            </Array>
          </mxGeometry>
        </mxCell>
        <mxCell id="8BYv1YqAckUxIusHopPF-0" style="edgeStyle=orthogonalEdgeStyle;rounded=0;orthogonalLoop=1;jettySize=auto;html=1;" parent="JH1rLwDBVYweKkS2PqFb-1" source="8BYv1YqAckUxIusHopPF-1" target="8BYv1YqAckUxIusHopPF-2" edge="1">
          <mxGeometry relative="1" as="geometry" />
        </mxCell>
        <mxCell id="8BYv1YqAckUxIusHopPF-1" value="Check driver location with Client destination" style="points=[[0.25,0,0],[0.5,0,0],[0.75,0,0],[1,0.25,0],[1,0.5,0],[1,0.75,0],[0.75,1,0],[0.5,1,0],[0.25,1,0],[0,0.75,0],[0,0.5,0],[0,0.25,0]];shape=mxgraph.bpmn.task;whiteSpace=wrap;rectStyle=rounded;size=10;html=1;container=1;expand=0;collapsible=0;taskMarker=abstract;" parent="JH1rLwDBVYweKkS2PqFb-1" vertex="1">
          <mxGeometry x="1060" y="305" width="120" height="80" as="geometry" />
        </mxCell>
        <mxCell id="8BYv1YqAckUxIusHopPF-2" value="Arrived pickup location?" style="points=[[0.25,0.25,0],[0.5,0,0],[0.75,0.25,0],[1,0.5,0],[0.75,0.75,0],[0.5,1,0],[0.25,0.75,0],[0,0.5,0]];shape=mxgraph.bpmn.gateway2;html=1;verticalLabelPosition=bottom;labelBackgroundColor=#ffffff;verticalAlign=top;align=center;perimeter=rhombusPerimeter;outlineConnect=0;outline=none;symbol=none;" parent="JH1rLwDBVYweKkS2PqFb-1" vertex="1">
          <mxGeometry x="1240" y="325" width="50" height="40" as="geometry" />
        </mxCell>
        <mxCell id="sCGjl2i0q2fNRNabJfUA-0" value="Check if client is in car" style="points=[[0.25,0,0],[0.5,0,0],[0.75,0,0],[1,0.25,0],[1,0.5,0],[1,0.75,0],[0.75,1,0],[0.5,1,0],[0.25,1,0],[0,0.75,0],[0,0.5,0],[0,0.25,0]];shape=mxgraph.bpmn.task;whiteSpace=wrap;rectStyle=rounded;size=10;html=1;container=1;expand=0;collapsible=0;taskMarker=abstract;" parent="JH1rLwDBVYweKkS2PqFb-1" vertex="1">
          <mxGeometry x="1390" y="305" width="120" height="80" as="geometry" />
        </mxCell>
        <mxCell id="sCGjl2i0q2fNRNabJfUA-1" style="edgeStyle=orthogonalEdgeStyle;rounded=0;orthogonalLoop=1;jettySize=auto;html=1;entryX=0;entryY=0.5;entryDx=0;entryDy=0;entryPerimeter=0;" parent="JH1rLwDBVYweKkS2PqFb-1" target="sCGjl2i0q2fNRNabJfUA-0" edge="1">
          <mxGeometry relative="1" as="geometry">
            <mxPoint x="1290" y="345" as="sourcePoint" />
          </mxGeometry>
        </mxCell>
        <mxCell id="sCGjl2i0q2fNRNabJfUA-2" value="Yes" style="edgeLabel;html=1;align=center;verticalAlign=middle;resizable=0;points=[];" parent="sCGjl2i0q2fNRNabJfUA-1" vertex="1" connectable="0">
          <mxGeometry x="0.05" y="-3" relative="1" as="geometry">
            <mxPoint as="offset" />
          </mxGeometry>
        </mxCell>
        <mxCell id="sCGjl2i0q2fNRNabJfUA-3" style="edgeStyle=orthogonalEdgeStyle;rounded=0;orthogonalLoop=1;jettySize=auto;html=1;" parent="JH1rLwDBVYweKkS2PqFb-1" source="sCGjl2i0q2fNRNabJfUA-4" target="sCGjl2i0q2fNRNabJfUA-8" edge="1">
          <mxGeometry relative="1" as="geometry" />
        </mxCell>
        <mxCell id="sCGjl2i0q2fNRNabJfUA-4" value="Is client in car?" style="points=[[0.25,0.25,0],[0.5,0,0],[0.75,0.25,0],[1,0.5,0],[0.75,0.75,0],[0.5,1,0],[0.25,0.75,0],[0,0.5,0]];shape=mxgraph.bpmn.gateway2;html=1;verticalLabelPosition=bottom;labelBackgroundColor=#ffffff;verticalAlign=top;align=center;perimeter=rhombusPerimeter;outlineConnect=0;outline=none;symbol=none;" parent="JH1rLwDBVYweKkS2PqFb-1" vertex="1">
          <mxGeometry x="1600" y="325" width="50" height="40" as="geometry" />
        </mxCell>
        <mxCell id="sCGjl2i0q2fNRNabJfUA-5" style="edgeStyle=orthogonalEdgeStyle;rounded=0;orthogonalLoop=1;jettySize=auto;html=1;entryX=0;entryY=0.5;entryDx=0;entryDy=0;entryPerimeter=0;" parent="JH1rLwDBVYweKkS2PqFb-1" source="sCGjl2i0q2fNRNabJfUA-0" target="sCGjl2i0q2fNRNabJfUA-4" edge="1">
          <mxGeometry relative="1" as="geometry" />
        </mxCell>
        <mxCell id="sCGjl2i0q2fNRNabJfUA-6" style="edgeStyle=orthogonalEdgeStyle;rounded=0;orthogonalLoop=1;jettySize=auto;html=1;exitX=0.5;exitY=1;exitDx=0;exitDy=0;exitPerimeter=0;entryX=0.5;entryY=1;entryDx=0;entryDy=0;entryPerimeter=0;" parent="JH1rLwDBVYweKkS2PqFb-1" source="sCGjl2i0q2fNRNabJfUA-4" target="sCGjl2i0q2fNRNabJfUA-0" edge="1">
          <mxGeometry relative="1" as="geometry" />
        </mxCell>
        <mxCell id="sCGjl2i0q2fNRNabJfUA-7" value="No" style="edgeLabel;html=1;align=center;verticalAlign=middle;resizable=0;points=[];" parent="sCGjl2i0q2fNRNabJfUA-6" vertex="1" connectable="0">
          <mxGeometry x="0.0383" y="3" relative="1" as="geometry">
            <mxPoint as="offset" />
          </mxGeometry>
        </mxCell>
        <mxCell id="sCGjl2i0q2fNRNabJfUA-8" value="Inform Client in the car" style="points=[[0.25,0,0],[0.5,0,0],[0.75,0,0],[1,0.25,0],[1,0.5,0],[1,0.75,0],[0.75,1,0],[0.5,1,0],[0.25,1,0],[0,0.75,0],[0,0.5,0],[0,0.25,0]];shape=mxgraph.bpmn.task;whiteSpace=wrap;rectStyle=rounded;size=10;html=1;container=1;expand=0;collapsible=0;taskMarker=abstract;" parent="JH1rLwDBVYweKkS2PqFb-1" vertex="1">
          <mxGeometry x="1720" y="305" width="120" height="80" as="geometry" />
        </mxCell>
        <mxCell id="0JVOviMgSdWLr8YbXQJn-0" value="Update Ride with client information" style="points=[[0.25,0,0],[0.5,0,0],[0.75,0,0],[1,0.25,0],[1,0.5,0],[1,0.75,0],[0.75,1,0],[0.5,1,0],[0.25,1,0],[0,0.75,0],[0,0.5,0],[0,0.25,0]];shape=mxgraph.bpmn.task;whiteSpace=wrap;rectStyle=rounded;size=10;html=1;container=1;expand=0;collapsible=0;taskMarker=abstract;" parent="JH1rLwDBVYweKkS2PqFb-1" vertex="1">
          <mxGeometry x="1720" y="115" width="120" height="80" as="geometry" />
        </mxCell>
        <mxCell id="0JVOviMgSdWLr8YbXQJn-1" value="Update Ride with client information and conciliate with Driver information" style="points=[[0.25,0,0],[0.5,0,0],[0.75,0,0],[1,0.25,0],[1,0.5,0],[1,0.75,0],[0.75,1,0],[0.5,1,0],[0.25,1,0],[0,0.75,0],[0,0.5,0],[0,0.25,0]];shape=mxgraph.bpmn.task;whiteSpace=wrap;rectStyle=rounded;size=10;html=1;container=1;expand=0;collapsible=0;taskMarker=abstract;" parent="JH1rLwDBVYweKkS2PqFb-1" vertex="1">
          <mxGeometry x="1720" y="-95" width="120" height="80" as="geometry" />
        </mxCell>
        <mxCell id="0JVOviMgSdWLr8YbXQJn-5" value="PATCH /ride/{id}" style="edgeLabel;html=1;align=center;verticalAlign=middle;resizable=0;points=[];" parent="JH1rLwDBVYweKkS2PqFb-1" vertex="1" connectable="0">
          <mxGeometry x="1777" y="261" as="geometry" />
        </mxCell>
        <mxCell id="0JVOviMgSdWLr8YbXQJn-6" style="edgeStyle=orthogonalEdgeStyle;rounded=0;orthogonalLoop=1;jettySize=auto;html=1;entryX=0.5;entryY=1;entryDx=0;entryDy=0;entryPerimeter=0;" parent="JH1rLwDBVYweKkS2PqFb-1" source="0JVOviMgSdWLr8YbXQJn-0" target="0JVOviMgSdWLr8YbXQJn-1" edge="1">
          <mxGeometry relative="1" as="geometry" />
        </mxCell>
        <mxCell id="0JVOviMgSdWLr8YbXQJn-7" style="edgeStyle=orthogonalEdgeStyle;rounded=0;orthogonalLoop=1;jettySize=auto;html=1;entryX=0.5;entryY=1;entryDx=0;entryDy=0;entryPerimeter=0;" parent="JH1rLwDBVYweKkS2PqFb-1" source="0JVOviMgSdWLr8YbXQJn-1" target="0JVOviMgSdWLr8YbXQJn-2" edge="1">
          <mxGeometry relative="1" as="geometry" />
        </mxCell>
        <mxCell id="0JVOviMgSdWLr8YbXQJn-8" value="PATCH /ride/{id}" style="edgeLabel;html=1;align=center;verticalAlign=middle;resizable=0;points=[];" parent="0JVOviMgSdWLr8YbXQJn-7" vertex="1" connectable="0">
          <mxGeometry x="-0.4231" y="1" relative="1" as="geometry">
            <mxPoint as="offset" />
          </mxGeometry>
        </mxCell>
        <mxCell id="0JVOviMgSdWLr8YbXQJn-9" style="edgeStyle=orthogonalEdgeStyle;rounded=0;orthogonalLoop=1;jettySize=auto;html=1;entryX=0.5;entryY=1;entryDx=0;entryDy=0;entryPerimeter=0;" parent="JH1rLwDBVYweKkS2PqFb-1" source="sCGjl2i0q2fNRNabJfUA-8" target="0JVOviMgSdWLr8YbXQJn-0" edge="1">
          <mxGeometry relative="1" as="geometry" />
        </mxCell>
        <mxCell id="81Kd43_wfJPXAqpEH8De-0" value="&lt;h1&gt;Diagram for the interaction between the Client and the Exp API when it&#39;s waiting to do the ride&lt;/h1&gt;" style="text;html=1;align=center;verticalAlign=middle;resizable=0;points=[];autosize=1;strokeColor=none;fillColor=none;" parent="JH1rLwDBVYweKkS2PqFb-1" vertex="1">
          <mxGeometry y="-850" width="1090" height="70" as="geometry" />
        </mxCell>
        <mxCell id="NZJf47py4SzXWwfvqDc9-0" value="sys-drivers" style="swimlane;horizontal=0;whiteSpace=wrap;html=1;" parent="JH1rLwDBVYweKkS2PqFb-1" vertex="1">
          <mxGeometry y="-555" width="2000" height="200" as="geometry" />
        </mxCell>
        <mxCell id="3RJ_jzoHxxyydn7t_Ovb-2" value="Get driver location" style="points=[[0.25,0,0],[0.5,0,0],[0.75,0,0],[1,0.25,0],[1,0.5,0],[1,0.75,0],[0.75,1,0],[0.5,1,0],[0.25,1,0],[0,0.75,0],[0,0.5,0],[0,0.25,0]];shape=mxgraph.bpmn.task;whiteSpace=wrap;rectStyle=rounded;size=10;html=1;container=1;expand=0;collapsible=0;taskMarker=abstract;" parent="NZJf47py4SzXWwfvqDc9-0" vertex="1">
          <mxGeometry x="800" y="60" width="120" height="80" as="geometry" />
        </mxCell>
      </root>
    </mxGraphModel>
  </diagram>
</mxfile>
